<svg width="36" height="36" viewBox="0 0 36 36" fill="none" xmlns="http://www.w3.org/2000/svg">
<path fill-rule="evenodd" clip-rule="evenodd" d="M20.6135 17.9991L28.4567 10.156C29.1787 9.434 29.1787 8.26345 28.4567 7.54158C27.7347 6.81961 26.5643 6.81961 25.8423 7.54158L17.999 15.3848L10.1558 7.54148C9.43381 6.81951 8.26337 6.81951 7.5414 7.54148C6.81953 8.26345 6.81953 9.434 7.5414 10.1559L15.3847 17.999L7.5414 25.8423C6.81953 26.5642 6.81953 27.7348 7.5414 28.4567C8.26337 29.1786 9.43381 29.1786 10.1558 28.4567L17.999 20.6134L25.8423 28.4567C26.5642 29.1786 27.7347 29.1786 28.4567 28.4567C29.1787 27.7347 29.1787 26.5642 28.4567 25.8423L20.6135 17.9991Z" fill="white"/>
</svg>
