<svg width="20" height="20" viewBox="0 0 20 20" fill="none" xmlns="http://www.w3.org/2000/svg">
<path fill-rule="evenodd" clip-rule="evenodd" d="M0 9.96704C0 4.46272 4.46272 0 9.96704 0C15.4719 0 19.9341 4.46272 19.9341 9.96704C19.9341 15.4726 15.472 19.9341 9.96704 19.9341C4.46272 19.9341 0 15.472 0 9.96704ZM1.86885 9.96704C1.86885 14.4397 5.49436 18.0652 9.96704 18.0652C14.4397 18.0652 18.0652 14.4397 18.0652 9.96704C18.0652 5.49436 14.4397 1.86885 9.96704 1.86885C5.49436 1.86885 1.86885 5.49436 1.86885 9.96704ZM9.96767 4.37115C9.2538 4.37115 8.71366 4.74369 8.71366 5.34544V10.8647C8.71366 11.467 9.25373 11.8383 9.96767 11.8383C10.6641 11.8383 11.2217 11.4515 11.2217 10.8647V5.34544C11.2216 4.75798 10.6641 4.37115 9.96767 4.37115ZM8.72362 14.3263C8.72362 13.6399 9.28181 13.0817 9.96767 13.0817C10.6535 13.0817 11.211 13.6399 11.2111 14.3263C11.2111 15.0116 10.6535 15.5698 9.96767 15.5698C9.28181 15.5698 8.72362 15.0116 8.72362 14.3263Z" fill="#FF1744"/>
</svg>
