<svg width="70" height="70" viewBox="0 0 70 70" fill="none" xmlns="http://www.w3.org/2000/svg">
<path d="M34.5 49C33.1193 49 32 50.0334 32 51.3081V67.6919C32 68.9666 33.1193 70 34.5 70C35.881 70 37 68.9666 37 67.6919V51.3081C37 50.0334 35.881 49 34.5 49Z" fill="#26C6DA"/>
<path d="M34.5 0C33.1193 0 32 1.03362 32 2.30857V18.6914C32 19.9664 33.1193 21 34.5 21C35.881 21 37 19.9664 37 18.6914V2.30857C37 1.03362 35.881 0 34.5 0Z" fill="#26C6DA"/>
<path d="M21 34.5C21 33.1193 19.9676 32 18.6936 32H2.30644C1.03236 32 0 33.1193 0 34.5C0 35.8807 1.03236 37 2.30644 37H18.6936C19.9676 37 21 35.8807 21 34.5Z" fill="#26C6DA"/>
<path d="M67.6926 32H51.3074C50.0328 32 49 33.1193 49 34.5C49 35.8807 50.0328 37 51.3074 37H67.6926C68.9669 37 70 35.8807 70 34.5C70 33.1193 68.9669 32 67.6926 32Z" fill="#26C6DA"/>
<path d="M21.1095 45.6676L9.66732 57.1107C8.77736 58.0008 8.77766 59.4431 9.66762 60.3329C10.1128 60.7776 10.6958 61 11.2789 61C11.8623 61 12.4454 60.7776 12.8905 60.3326L24.3327 48.8895C25.2227 47.9994 25.2224 46.5571 24.3321 45.6673C23.4418 44.7775 21.9989 44.7775 21.1095 45.6676Z" fill="#26C6DA"/>
<path d="M21.1068 24.3319C21.5519 24.7774 22.1358 25 22.7193 25C23.3028 25 23.8866 24.7774 24.3321 24.3319C25.2227 23.4413 25.2227 21.9972 24.3318 21.1069L12.8929 9.6681C12.0023 8.77715 10.5586 8.77745 9.66793 9.6681C8.77731 10.5587 8.77731 12.0028 9.66823 12.8931L21.1068 24.3319Z" fill="#26C6DA"/>
<path d="M48.8909 45.6675C48.0001 44.7772 46.5567 44.7775 45.6673 45.6685C44.7771 46.5594 44.7777 48.0035 45.6682 48.8939L57.1088 60.3325C57.5541 60.7774 58.137 61 58.7203 61C59.3035 61 59.8877 60.7771 60.3327 60.3316C61.2229 59.4407 61.2223 57.9966 60.3318 57.1062L48.8909 45.6675Z" fill="#26C6DA"/>
</svg>
