<svg width="40" height="30" viewBox="0 0 40 30" fill="none" xmlns="http://www.w3.org/2000/svg">
<path d="M34.604 1.67849C34.2764 1.33327 33.7054 1.33265 33.3628 1.66397L32.1485 2.83868C31.8236 3.15298 31.8274 3.6503 32.1365 3.97921C35.0961 7.1297 36.5759 11.1252 36.5757 15.1207C36.5756 19.1157 35.0958 23.1106 32.1365 26.2607C31.8274 26.5897 31.8236 27.0869 32.1485 27.4012L33.3628 28.5759C33.7054 28.9073 34.2764 28.9066 34.6041 28.5614C38.2016 24.7701 40.0002 19.9445 40 15.1189C39.9998 10.2942 38.2011 5.46932 34.604 1.67849Z" fill="white"/>
<path d="M3.42424 15.1195C3.42432 11.1244 4.90409 7.1294 7.86346 3.97923C8.17255 3.65025 8.1764 3.153 7.85151 2.8387L6.63716 1.66399C6.29461 1.3326 5.72355 1.3333 5.39593 1.67852C1.79856 5.46964 -8.02607e-05 10.295 0 15.1204C8.02607e-05 19.9455 1.7988 24.7705 5.39593 28.5614C5.72347 28.9066 6.29461 28.9073 6.63716 28.5759L7.85151 27.4012C8.1764 27.0869 8.17255 26.5896 7.86346 26.2606C4.90393 23.1102 3.42416 19.1149 3.42424 15.1195Z" fill="white"/>
<path fill-rule="evenodd" clip-rule="evenodd" d="M5.2381 14.8837C5.2381 6.67636 11.9674 0 20.2381 0C28.5088 0 35.2381 6.67636 35.2381 14.8837C35.2381 23.0911 28.5088 29.7674 20.2381 29.7674C11.9674 29.7674 5.2381 23.0911 5.2381 14.8837ZM18.5617 16.5374H21.0617C23.359 16.5374 25.2283 14.6835 25.2283 12.4031C25.2283 10.1227 23.359 8.26876 21.0617 8.26868H17.7283C17.2677 8.26868 16.895 8.63853 16.895 9.09558V20.6718C16.895 21.1288 17.2677 21.4987 17.7283 21.4987C18.189 21.4987 18.5617 21.1288 18.5617 20.6718V16.5374Z" fill="white"/>
<path d="M21.1905 9.92249H18.5714V14.6475H21.1905C22.6347 14.6475 23.8095 13.5877 23.8095 12.285C23.8095 10.9822 22.6347 9.92249 21.1905 9.92249Z" fill="white"/>
</svg>
