<svg width="36" height="36" viewBox="0 0 36 36" fill="none" xmlns="http://www.w3.org/2000/svg">
<path d="M34.5458 17.0769H1.4542C0.651094 17.0769 0 17.6968 0 18.4615C0 19.2263 0.651094 19.8462 1.4542 19.8462H34.5458C35.349 19.8462 36 19.2263 36 18.4615C36 17.6969 35.349 17.0769 34.5458 17.0769Z" fill="white"/>
<path d="M34.5458 6H1.4542C0.651094 6 0 6.61994 0 7.38462C0 8.14929 0.651094 8.76923 1.4542 8.76923H34.5458C35.349 8.76923 36 8.14929 36 7.38462C36 6.61994 35.349 6 34.5458 6Z" fill="white"/>
<path d="M34.5458 28.1538H1.4542C0.651094 28.1538 0 28.7737 0 29.5385C0 30.3032 0.651094 30.9231 1.4542 30.9231H34.5458C35.349 30.9231 36 30.3032 36 29.5385C36 28.7737 35.349 28.1538 34.5458 28.1538Z" fill="white"/>
</svg>
