<svg width="70" height="70" viewBox="0 0 70 70" fill="none" xmlns="http://www.w3.org/2000/svg">
<path fill-rule="evenodd" clip-rule="evenodd" d="M0 35C0 15.701 15.6998 0 34.9993 0C54.2988 0 70 15.701 70 35C70 54.299 54.2988 70 34.9993 70C15.6998 70 0 54.299 0 35ZM4.59025 35C4.59025 51.7678 18.2315 65.4098 34.9993 65.4098C51.7671 65.4098 65.4094 51.7678 65.4092 35C65.4092 18.2322 51.7673 4.59043 34.9993 4.59043C18.2313 4.59043 4.59025 18.232 4.59025 35Z" fill="#26C6DA"/>
<path d="M48.142 23.7114L30.0324 41.4919L22.7119 34.3056C21.8123 33.4233 20.3551 33.4228 19.4555 34.3061C18.5555 35.1897 18.5555 36.6208 19.4555 37.5041L28.4044 46.2895C28.8542 46.7305 29.4433 46.9512 30.0324 46.9512C30.6215 46.9512 31.2123 46.7305 31.6618 46.2888C31.6632 46.2869 31.6642 46.285 31.6665 46.2828L51.3982 26.9088C52.2982 26.0261 52.2982 24.594 51.3982 23.7112C50.4988 22.8279 49.0405 22.8279 48.142 23.7114Z" fill="#26C6DA"/>
</svg>
